<?xml version="1.0" encoding="UTF-8"?>
<svg width="24px" height="24px" viewBox="0 0 24 24" version="1.1" xmlns="http://www.w3.org/2000/svg" xmlns:xlink="http://www.w3.org/1999/xlink">
    <title>POI / List / Special Services / ic_list_catscales@3x</title>
    <g id="页面-1" stroke="none" stroke-width="1" fill="none" fill-rule="evenodd">
        <g id="Command-Web-轮播图-V2.2" transform="translate(-5237.000000, -772.000000)">
            <g id="编组-35" transform="translate(4816.000000, 213.000000)">
                <g id="编组-31" transform="translate(235.000000, 338.000000)">
                    <g id="编组" transform="translate(186.000000, 221.000000)">
                        <circle id="椭圆形" fill="#FFFFFF" cx="12" cy="12" r="12"></circle>
                        <g id="Shape-+-Oval-58">
                            <path d="M12,24 C18.627417,24 24,18.627417 24,12 C24,5.372583 18.627417,0 12,0 C5.372583,0 0,5.372583 0,12 C0,18.627417 5.372583,24 12,24 Z M12,22 C6.4771525,22 2,17.5228475 2,12 C2,6.4771525 6.4771525,2 12,2 C17.5228475,2 22,6.4771525 22,12 C22,17.5228475 17.5228475,22 12,22 Z" id="Oval-58" fill="#323337" fill-rule="nonzero"></path>
                            <g id="Cat_Scale" transform="translate(5.333333, 5.333333)">
                                <path d="M13.3333333,0 L9.65991374,3.15618575 C8.74778896,2.72039511 7.72543894,2.47420928 6.6644883,2.47420928 C5.60580316,2.47420928 4.58528297,2.71931022 3.67446521,3.15351526 L0,0 L0,8.63277723 C0,11.9090516 2.88868557,14.4819021 6.2749096,14.6666667 L7.05424128,14.6666667 C10.4407267,14.4819021 13.3333333,11.9090516 13.3333333,8.63277723 L13.3333333,0" id="Fill-2" fill="#323337"></path>
                                <g id="Group-5" transform="translate(2.666667, 5.333333)" fill="#FFFFFF">
                                    <path d="M4.32512608,1.59088083 L3.74837997,3.11361658 L4.90676339,3.11361658 L4.32512608,1.59088083 L4.32512608,1.59088083 Z M5.30585147,4.30972021 L5.18365458,3.86984456 L3.50025561,3.86984456 L3.35269085,4.30972021 L3.77258722,4.30972021 L3.77258722,4.84576166 L2.22663903,4.84576166 L3.80093955,0.495419689 L4.89855613,0.495419689 L6.44442142,4.84576166 L4.86680484,4.84576166 L4.86680484,4.30972021 L5.30585147,4.30972021 L5.30585147,4.30972021 Z" id="Fill-12"></path>
                                    <path d="M2.65424525,1.42773057 L2.05179965,1.42773057 C1.97146805,1.09819689 1.77465976,0.92957513 1.4251468,0.92957513 C0.923094991,0.92957513 0.698183074,1.37948187 0.698183074,1.92978238 C0.698183074,2.39568912 0.862825561,2.92194819 1.41304318,2.92194819 C1.74257686,2.92194819 1.9795095,2.73707772 2.05179965,2.37968912 L2.65424525,2.37968912 C2.52574784,3.03030052 2.10792401,3.44406218 1.40118826,3.44406218 C0.501374784,3.44406218 0.0836338515,2.76534715 0.0836338515,1.92978238 C0.0836338515,1.07813472 0.52143696,0.40746114 1.41718826,0.40746114 C2.03165458,0.40746114 2.57797582,0.748849741 2.65424525,1.42773057" id="Fill-13"></path>
                                    <polyline id="Fill-14" points="8.1982867 0.48373057 8.1982867 0.993906736 7.32657686 0.993906736 7.32657686 3.36779275 6.72421416 3.36779275 6.72421416 0.993906736 5.85250432 0.993906736 5.85250432 0.48373057 8.1982867 0.48373057"></polyline>
                                </g>
                            </g>
                        </g>
                    </g>
                </g>
            </g>
        </g>
    </g>
</svg>