<?xml version="1.0" encoding="UTF-8"?>
<svg width="24px" height="24px" viewBox="0 0 24 24" version="1.1" xmlns="http://www.w3.org/2000/svg" xmlns:xlink="http://www.w3.org/1999/xlink">
    <title>POI / List / WRFM / ic_list_walmarts@3x</title>
    <g id="页面-1" stroke="none" stroke-width="1" fill="none" fill-rule="evenodd">
        <g id="Command-Web-轮播图-V2.2" transform="translate(-5423.000000, -685.000000)">
            <g id="编组-35" transform="translate(4816.000000, 213.000000)">
                <g id="编组-31" transform="translate(235.000000, 338.000000)">
                    <g id="编组" transform="translate(372.000000, 134.000000)">
                        <circle id="椭圆形" fill="#FFFFFF" cx="12" cy="12" r="12"></circle>
                        <g id="ic_list_walmarts" fill="#0277AD" fill-rule="nonzero">
                            <path d="M12,24 C18.627417,24 24,18.627417 24,12 C24,5.372583 18.627417,0 12,0 C5.372583,0 0,5.372583 0,12 C0,18.627417 5.372583,24 12,24 Z M12,22 C6.4771525,22 2,17.5228475 2,12 C2,6.4771525 6.4771525,2 12,2 C17.5228475,2 22,6.4771525 22,12 C22,17.5228475 17.5228475,22 12,22 Z" id="Oval-58"></path>
                        </g>
                        <path d="M11.9995024,9.06291706 C12.4219117,9.06291706 12.7644058,8.83984747 12.8157799,8.55958055 L13.2267727,3.8465205 C13.2267727,3.38322212 12.6844905,3 11.9995024,3 C11.3145144,3 10.7722322,3.38322212 10.7722322,3.8465205 L11.1889332,8.55958055 C11.2345991,8.84556721 11.5828014,9.05719733 11.9995024,9.05719733 M9.45933841,10.5328885 C9.67054306,10.1668255 9.65341836,9.75500477 9.43079724,9.57197331 L5.56632297,6.86081983 C5.16674661,6.62631077 4.56738206,6.90657769 4.22488803,7.50142993 C3.88239401,8.09628217 3.93947634,8.75977121 4.33905271,8.98856053 L8.62022804,10.9847474 C8.88851503,11.0819828 9.24813376,10.8932316 9.45933841,10.5271687 M14.5396665,10.5271687 C14.7508711,10.8932316 15.1104898,11.0819828 15.3844851,10.9847474 L19.6599522,8.98856053 C20.0595285,8.75977121 20.1166109,8.09628217 19.7798251,7.50142993 C19.4373311,6.90657769 18.8322583,6.62631077 18.4326819,6.86081983 L14.5682076,9.57197331 C14.3512948,9.75500477 14.3341701,10.1668255 14.5453747,10.5328885 M11.9995024,14.9370829 C12.4219117,14.9370829 12.7644058,15.1601525 12.8157799,15.4404194 L13.2267727,20.1534795 C13.2267727,20.6167779 12.6844905,21 11.9995024,21 C11.3145144,21 10.7722322,20.6167779 10.7722322,20.1534795 L11.1889332,15.4404194 C11.2345991,15.1544328 11.5828014,14.9428027 11.9995024,14.9428027 M14.5396665,13.4728313 C14.7508711,13.1067684 15.1104898,12.9180172 15.3844851,13.0152526 L19.6599522,15.0114395 C20.0595285,15.2402288 20.1166109,15.9094376 19.7798251,16.4985701 C19.4373311,17.0934223 18.8322583,17.3736892 18.4326819,17.1391802 L14.5682076,14.4280267 C14.3512948,14.2449952 14.3341701,13.8331745 14.5453747,13.4728313 M9.45933841,13.4728313 C9.67054306,13.8331745 9.65341836,14.2449952 9.43079724,14.4280267 L5.56632297,17.1391802 C5.16674661,17.3679695 4.56738206,17.0934223 4.22488803,16.4985701 C3.88239401,15.9037178 3.93947634,15.2402288 4.33905271,15.0114395 L8.62022804,13.0152526 C8.88851503,12.9180172 9.24813376,13.1067684 9.45933841,13.4728313" id="形状" fill="#0277AD" fill-rule="nonzero"></path>
                    </g>
                </g>
            </g>
        </g>
    </g>
</svg>