<?xml version="1.0" encoding="UTF-8"?>
<svg width="30px" height="30px" viewBox="0 0 30 30" version="1.1" xmlns="http://www.w3.org/2000/svg" xmlns:xlink="http://www.w3.org/1999/xlink">
    <title>编组 73@3x</title>
    <defs>
        <path d="M0.606080701,2.74025113 L6.63625455,0.155890907 C6.86993484,0.0557422114 7.13298705,0.0483589256 7.37191691,0.135242513 L17.5957649,3.85300543 C17.8538251,3.94684548 18.1391187,3.93044066 18.3847216,3.8076392 L22.5527864,1.7236068 C23.0467649,1.47661755 23.6474379,1.6768419 23.8944272,2.17082039 C23.9638549,2.30967583 24,2.46278889 24,2.61803399 L24,12.381966 C24,12.7607381 23.7859976,13.1070012 23.4472136,13.2763932 L18.3847216,15.8076392 C18.1391187,15.9304407 17.8538251,15.9468455 17.5957649,15.8530054 L7.37191691,12.1352425 C7.13298705,12.0483589 6.86993484,12.0557422 6.63625455,12.1558909 L1.3939193,14.402606 C0.886289516,14.6201616 0.298410591,14.3850101 0.08085497,13.8773803 C0.0275077492,13.7529034 1.65849968e-17,13.6188878 0,13.483461 L0,3.65939616 C-4.592876e-18,3.25936805 0.238396854,2.89782992 0.606080701,2.74025113 Z" id="path-1"></path>
    </defs>
    <g id="页面-1" stroke="none" stroke-width="1" fill="none" fill-rule="evenodd">
        <g id="Command-Web--V2.2" transform="translate(-235.000000, -3209.000000)">
            <g id="编组-73" transform="translate(235.000000, 3211.000000)">
                <g id="编组-44" transform="translate(0.000000, 6.000000)">
                    <g id="矩形-+-矩形备份-40-蒙版" transform="translate(3.000000, 3.000000)">
                        <mask id="mask-2" fill="white">
                            <use xlink:href="#path-1"></use>
                        </mask>
                        <use id="蒙版" fill="#F5F6F7" xlink:href="#path-1"></use>
                        <polygon id="矩形" fill-opacity="0.5" fill="#005EE9" mask="url(#mask-2)" points="-2 2 7 -2 7 14 -2 18"></polygon>
                        <polygon id="矩形备份-40" fill-opacity="0.5" fill="#005EE9" mask="url(#mask-2)" points="18 2 26 -2 26 14 18 18"></polygon>
                    </g>
                    <path d="M9.92413598,0.838120328 L20.3645104,4.56696061 C20.7902174,4.72176312 21.2593654,4.70546462 21.6733031,4.52149232 L21.6733031,4.52149232 L28.8984654,1.31030909 C28.9615509,1.28227108 29.0300288,1.28245789 29.0897448,1.30542558 C29.117111,1.31595104 29.1426371,1.3312608 29.1649608,1.35083091 L29.1649608,1.35083091 L29.25,17.3501269 C29.25,17.3995255 29.2354542,17.4466074 29.2096231,17.4863553 C29.183792,17.5261032 29.1466756,17.5585171 29.1015346,17.5785798 L29.1015346,17.5785798 L21.0640954,21.150775 C21.0049615,21.1770568 20.9379403,21.1793851 20.877125,21.1572705 L20.877125,21.1572705 L10.615034,17.425601 C10.2107453,17.2785869 9.76647037,17.2856371 9.36704997,17.4454053 L9.36704997,17.4454053 L1.09284767,20.7550862 C1.02874973,20.7807254 0.960327607,20.7779565 0.901520175,20.7527533 C0.8714268,20.7398561 0.843851175,20.7210842 0.820661159,20.6972381 L0.820661159,20.6972381 L0.75,4.67703296 C0.75,4.62591989 0.765559434,4.57738155 0.792983192,4.53687576 C0.820406951,4.49636996 0.859695033,4.46389671 0.907152331,4.44491379 L0.907152331,4.44491379 L9.92413598,0.838120328 Z" id="矩形备份-42" stroke="#000000" stroke-width="1.5"></path>
                </g>
                <path d="M20.1733871,-0.75 C21.9939225,-0.75 23.642108,-0.0120822237 24.8351596,1.18096941 C26.0282113,2.37402104 26.766129,4.02220652 26.766129,5.84274194 C26.766129,7.77429355 25.3447449,10.678042 22.3405612,14.5238903 C21.4850326,15.2662848 20.7200032,15.5241387 20.0399419,15.5241386 C19.2247945,15.5241386 18.504899,15.1623089 18.0026579,14.5193214 C14.9047728,10.4898908 13.5806452,7.71096598 13.5806452,5.84274194 C13.5806452,4.02220652 14.3185629,2.37402104 15.5116146,1.18096941 C16.7046662,-0.0120822237 18.3528517,-0.75 20.1733871,-0.75 L20.1733871,-0.75 Z" id="椭圆形备份-9" stroke="#000000" stroke-width="1.5" fill="#F5F6F7"></path>
                <circle id="椭圆形备份-10" fill="#005EE9" cx="20.1733871" cy="5.72983871" r="3.30241935"></circle>
            </g>
        </g>
    </g>
</svg>