<?xml version="1.0" encoding="UTF-8"?>
<svg width="24px" height="24px" viewBox="0 0 24 24" version="1.1" xmlns="http://www.w3.org/2000/svg" xmlns:xlink="http://www.w3.org/1999/xlink">
    <title>POI / List / Truck Stops / ic_list_truckstop@3x</title>
    <g id="页面-1" stroke="none" stroke-width="1" fill="none" fill-rule="evenodd">
        <g id="Command-Web-轮播图-V2.2" transform="translate(-5051.000000, -729.000000)">
            <g id="编组-35" transform="translate(4816.000000, 213.000000)">
                <g id="编组-31" transform="translate(235.000000, 338.000000)">
                    <g id="编组" transform="translate(0.000000, 178.000000)">
                        <circle id="椭圆形" fill="#FFFFFF" cx="12" cy="12" r="12"></circle>
                        <g id="ic_list_kwik-trip" fill-rule="nonzero">
                            <g id="Shape-+-Oval-58">
                                <path d="M12,24 C18.627417,24 24,18.627417 24,12 C24,5.372583 18.627417,0 12,0 C5.372583,0 0,5.372583 0,12 C0,18.627417 5.372583,24 12,24 Z M12,22 C6.4771525,22 2,17.5228475 2,12 C2,6.4771525 6.4771525,2 12,2 C17.5228475,2 22,6.4771525 22,12 C22,17.5228475 17.5228475,22 12,22 Z" id="Oval-58" fill="#ED593B"></path>
                                <path d="M13,5 L6,5 L6,14 L9.11,14 L9.11,11 L13,11 L13,5 Z M10.67,10.25 L9.11,10.25 L9.11,5.75 L10.67,5.75 L10.67,10.25 Z M16.97,13.25 C17.5799283,11.5860813 17.9992721,9.85838479 18.22,8.1 C18.22,7.63 17.93,7.72 17.71,8.15 C17.58,8.41 16.32,11.42 16.17,11.89 C15.82,13.01 15.44,13.12 15.25,13.18 C15.06,13.24 12.25,14.09 11.25,14.42 C11.04,14.49 11.11,14.59 11.11,14.59 L14.6,14.59 C14.6534982,14.5894384 14.7037368,14.6156532 14.733876,14.6598573 C14.7640151,14.7040614 14.7700659,14.7604043 14.75,14.81 C14,16.93 13.22,19 13,19 C12.78,19 12.77,17.53 12.89,17.09 C12.8986995,17.0448251 12.8887187,16.9980531 12.8623366,16.9603644 C12.8359545,16.9226757 12.7954239,16.8972885 12.75,16.89 C11.54,16.7 11.19,16.67 11.15,16.89 C10.64,19.33 11.91,19.78 13.34,19.89 C14.0693117,19.8915659 14.7212763,19.4355906 14.97,18.75 L16.45,14.75 C16.4746756,14.6889898 16.5341923,14.6493121 16.6,14.65 L20.6,14.65 C20.6,14.65 18.52,13.77 17,13.28 L16.97,13.25 Z" id="Shape" fill="#323337"></path>
                            </g>
                        </g>
                    </g>
                </g>
            </g>
        </g>
    </g>
</svg>