<?xml version="1.0" encoding="UTF-8"?>
<svg width="34px" height="34px" viewBox="0 0 34 34" version="1.1" xmlns="http://www.w3.org/2000/svg" xmlns:xlink="http://www.w3.org/1999/xlink">
    <title>icon-2备份</title>
    <defs>
        <circle id="path-1" cx="12" cy="12" r="12"></circle>
        <filter color-interpolation-filters="auto" id="filter-3">
            <feColorMatrix in="SourceGraphic" type="matrix" values="0 0 0 0 0.000000 0 0 0 0 0.368627 0 0 0 0 0.913725 0 0 0 1.000000 0"></feColorMatrix>
        </filter>
    </defs>
    <g id="页面-1" stroke="none" stroke-width="1" fill="none" fill-rule="evenodd">
        <g id="Command-Web-轮播图-V2.2" transform="translate(-285.000000, -720.000000)">
            <g id="编组-78" transform="translate(285.000000, 720.000000)">
                <rect id="矩形备份-17" fill="#D8D8D8" opacity="0" x="0" y="0" width="34" height="34"></rect>
                <g id="编组-54" transform="translate(2.000000, 2.000000)">
                    <circle id="椭圆形" stroke="#000000" stroke-width="1.5" fill="#F5F6F7" cx="15" cy="15" r="14.25"></circle>
                    <g id="矩形" transform="translate(3.000000, 3.000000)">
                        <mask id="mask-2" fill="white">
                            <use xlink:href="#path-1"></use>
                        </mask>
                        <use id="蒙版" fill="#F5F6F7" xlink:href="#path-1"></use>
                        <g id="编组-22" mask="url(#mask-2)" fill="#1E7BF1">
                            <g transform="translate(3.514719, -12.485281)">
                                <path d="M2.48528137,2.48528137 L14.4852814,2.48528137 L14.4852814,12.4852814 C14.4852814,13.5898509 13.5898509,14.4852814 12.4852814,14.4852814 L2.48528137,14.4852814 L2.48528137,14.4852814 L2.48528137,2.48528137 Z" id="矩形" transform="translate(8.485281, 8.485281) rotate(-315.000000) translate(-8.485281, -8.485281) "></path>
                                <path d="M2.48528137,34.4852814 L14.4852814,34.4852814 L14.4852814,44.4852814 C14.4852814,45.5898509 13.5898509,46.4852814 12.4852814,46.4852814 L2.48528137,46.4852814 L2.48528137,46.4852814 L2.48528137,34.4852814 Z" id="矩形备份-27" transform="translate(8.485281, 40.485281) rotate(-135.000000) translate(-8.485281, -40.485281) "></path>
                            </g>
                        </g>
                    </g>
                    <g id="Icon/side-bar/Assets/Selected" transform="translate(6.000000, 7.000000)" filter="url(#filter-3)">
                        <g id="Icon/side-bar/Assets_sel" fill="#198DF0">
                            <path d="M12.8290855,1.5 C13.2123712,1.5 13.535676,1.7854077 13.5832167,2.1657336 L14.25,7.5 L14.9197647,8.83952933 C14.9725297,8.94505946 15,9.06142539 15,9.17941166 L15,13.49 L15,13.5 L15,13.5 L15,15.75 C15,16.1642136 14.6642136,16.5 14.25,16.5 C13.8357864,16.5 13.5,16.1642136 13.5,15.75 L13.499,14.249 L4.499,14.249 L4.5,15.75 C4.5,16.1642136 4.16421356,16.5 3.75,16.5 C3.33578644,16.5 3,16.1642136 3,15.75 L3,13.5 L3,13.485 L3,9.17941166 C3,9.06142539 3.02747027,8.94505946 3.08023533,8.83952933 L3.75,7.5 L4.4167833,2.1657336 C4.46432404,1.7854077 4.7876288,1.5 5.17091449,1.5 L12.8290855,1.5 Z M6.75,10.5 L4.5,10.5 L4.5,12.75 L6.75,12.75 L6.75,10.5 Z M13.5,10.5 L11.25,10.5 L11.25,12.75 L13.5,12.75 L13.5,10.5 Z M12.75,4.5 L5.25,4.5 L5.25,7.5 L12.75,7.5 L12.75,4.5 Z M2.25,3.75 C2.66421356,3.75 3,4.08578644 3,4.5 L3,6.75 C3,7.16421356 2.66421356,7.5 2.25,7.5 C1.83578644,7.5 1.5,7.16421356 1.5,6.75 L1.5,4.5 C1.5,4.08578644 1.83578644,3.75 2.25,3.75 Z M15.75,3.75 C16.1642136,3.75 16.5,4.08578644 16.5,4.5 L16.5,6.75 C16.5,7.16421356 16.1642136,7.5 15.75,7.5 C15.3357864,7.5 15,7.16421356 15,6.75 L15,4.5 C15,4.08578644 15.3357864,3.75 15.75,3.75 Z" id="形状结合"></path>
                        </g>
                    </g>
                </g>
            </g>
        </g>
    </g>
</svg>