<?xml version="1.0" encoding="UTF-8"?>
<svg width="24px" height="24px" viewBox="0 0 24 24" version="1.1" xmlns="http://www.w3.org/2000/svg" xmlns:xlink="http://www.w3.org/1999/xlink">
    <title>POI / List / WRFM / ic_list_fuel@3x</title>
    <g id="页面-1" stroke="none" stroke-width="1" fill="none" fill-rule="evenodd">
        <g id="Command-Web-轮播图-V2.2" transform="translate(-5237.000000, -729.000000)">
            <g id="编组-35" transform="translate(4816.000000, 213.000000)">
                <g id="编组-31" transform="translate(235.000000, 338.000000)">
                    <g id="编组" transform="translate(186.000000, 178.000000)">
                        <circle id="椭圆形" fill="#FFFFFF" cx="12" cy="12" r="12"></circle>
                        <g id="ic_list_fuel" fill="#0277AD">
                            <path d="M12,24 C18.627417,24 24,18.627417 24,12 C24,5.372583 18.627417,0 12,0 C5.372583,0 0,5.372583 0,12 C0,18.627417 5.372583,24 12,24 Z M12,22 C6.4771525,22 2,17.5228475 2,12 C2,6.4771525 6.4771525,2 12,2 C17.5228475,2 22,6.4771525 22,12 C22,17.5228475 17.5228475,22 12,22 Z" id="Oval-58" fill-rule="nonzero"></path>
                            <path d="M16.2537374,9.17333333 L16.2593939,9.16740741 L14.1551515,6.96296296 L13.5555556,7.59111111 L14.7490909,8.84148148 C14.2173737,9.05481481 13.8383838,9.58814815 13.8383838,10.2222222 C13.8383838,11.04 14.4719192,11.7037037 15.2525253,11.7037037 C15.4561616,11.7037037 15.6428283,11.6562963 15.8181818,11.5792593 L15.8181818,15.8518519 C15.8181818,16.1777778 15.5636364,16.4444444 15.2525253,16.4444444 C14.9414141,16.4444444 14.6868687,16.1777778 14.6868687,15.8518519 L14.6868687,13.1851852 C14.6868687,12.5333333 14.1777778,12 13.5555556,12 L12.989899,12 L12.989899,7.85185185 C12.989899,7.2 12.4808081,6.66666667 11.8585859,6.66666667 L8.46464646,6.66666667 C7.84242424,6.66666667 7.33333333,7.2 7.33333333,7.85185185 L7.33333333,17.3333333 L12.989899,17.3333333 L12.989899,12.8888889 L13.8383838,12.8888889 L13.8383838,15.8518519 C13.8383838,16.6696296 14.4719192,17.3333333 15.2525253,17.3333333 C16.0331313,17.3333333 16.6666667,16.6696296 16.6666667,15.8518519 L16.6666667,10.2222222 C16.6666667,9.81333333 16.5082828,9.44 16.2537374,9.17333333 L16.2537374,9.17333333 Z M11.8585859,10.8148148 L8.46464646,10.8148148 L8.46464646,7.85185185 L11.8585859,7.85185185 L11.8585859,10.8148148 L11.8585859,10.8148148 Z M15.2525253,10.8148148 C14.9414141,10.8148148 14.6868687,10.5481481 14.6868687,10.2222222 C14.6868687,9.8962963 14.9414141,9.62962963 15.2525253,9.62962963 C15.5636364,9.62962963 15.8181818,9.8962963 15.8181818,10.2222222 C15.8181818,10.5481481 15.5636364,10.8148148 15.2525253,10.8148148 L15.2525253,10.8148148 Z" id="Shape"></path>
                        </g>
                    </g>
                </g>
            </g>
        </g>
    </g>
</svg>