<?xml version="1.0" encoding="UTF-8"?>
<svg width="32px" height="30px" viewBox="0 0 32 30" version="1.1" xmlns="http://www.w3.org/2000/svg" xmlns:xlink="http://www.w3.org/1999/xlink">
    <title>编组 45@3x</title>
    <defs>
        <path d="M6,16.0598548 L6,9 C6,6.23857625 8.23857625,4 11,4 C13.7614237,4 16,6.23857625 16,9 L16,19.5598548 C16,22.5974209 18.4624339,25.0598548 21.5,25.0598548 C24.5375661,25.0598548 27,22.5974209 27,19.5598548 L27,4 L27,4" id="path-1"></path>
        <path d="M16,18.9510014 L16,19.5598548 C16,22.5974209 18.4624339,25.0598548 21.5,25.0598548 C24.5375661,25.0598548 27,22.5974209 27,19.5598548 L27,4 L27,4" id="path-2"></path>
    </defs>
    <g id="页面-1" stroke="none" stroke-width="1" fill="none" fill-rule="evenodd">
        <g id="Command-Web--V2.2" transform="translate(-233.000000, -3120.000000)">
            <g id="编组-45" transform="translate(233.000000, 3122.000000)">
                <g id="路径-4">
                    <use stroke="#000000" stroke-width="4.5" xlink:href="#path-1"></use>
                    <use stroke="#F4F5F6" stroke-width="1.87919463" xlink:href="#path-1"></use>
                </g>
                <g id="路径-4">
                    <use stroke="#1E7BF1" stroke-width="4.5" xlink:href="#path-2"></use>
                    <use stroke="#78ABF3" stroke-width="1.87919463" xlink:href="#path-2"></use>
                </g>
                <g id="编组-5" transform="translate(0.000000, 7.000000)">
                    <rect id="矩形" x="0" y="1" width="12" height="12"></rect>
                    <g id="编组-4" transform="translate(1.000000, 0.000000)">
                        <circle id="椭圆形" stroke="#000000" stroke-width="1.2" fill="#F5F6F7" cx="5" cy="5" r="4.4"></circle>
                        <path d="M4.99921356,2.45190296 L7.12053391,4.5732233 L6.41342712,5.28033009 L5.49989322,4.36690296 L5.5,7.5 L4.5,7.5 L4.49989322,4.36490296 L3.585,5.28033009 L2.87789322,4.5732233 L4.99921356,2.45190296 Z" id="形状结合" fill="#000000"></path>
                    </g>
                </g>
                <path d="M26.5,-0.6 C27.8181344,-0.6 29.0114812,-0.0657204504 29.8752944,0.798092711 C30.7391075,1.66190587 31.2733871,2.85525265 31.2733871,4.1733871 C31.2733871,5.68502885 30.1035927,7.60049287 27.5664147,9.86886145 C27.2627647,10.1403403 26.8813672,10.2760795 26.4999699,10.2760792 C26.1185725,10.2760789 25.7371753,10.140339 25.4279577,9.86381857 C22.797456,7.45208012 21.7266129,5.6254579 21.7266129,4.1733871 C21.7266129,2.85525265 22.2608925,1.66190587 23.1247056,0.798092711 C23.9885188,-0.0657204504 25.1818656,-0.6 26.5,-0.6 Z" id="椭圆形备份-9" stroke="#005EE9" stroke-width="1.2" fill="#F5F6F7"></path>
                <g id="编组-4" transform="translate(17.000000, 21.000000) rotate(-217.000000) translate(-17.000000, -21.000000) translate(12.000000, 16.000000)">
                    <circle id="椭圆形" stroke="#005EE9" stroke-width="1.2" fill="#F5F6F7" cx="5" cy="5" r="4.4"></circle>
                    <path d="M2.93525634,6.80592003 L4.64518797,2.48358829 C4.71237585,2.31375209 4.88471961,2.23968903 5.03012853,2.31816382 C5.09266022,2.35191114 5.14286676,2.41055188 5.17176025,2.48358829 L6.88169188,6.80592003 C6.94887976,6.97575624 6.88546908,7.17705207 6.74006016,7.25552687 C6.66003831,7.29871334 6.56754376,7.29704903 6.48869885,7.25100399 L4.90847411,6.32816041 L3.32824937,7.25100399 C3.1849791,7.33467314 3.01076384,7.26684589 2.9391287,7.0995076 C2.89970625,7.00741751 2.89828132,6.89938478 2.93525634,6.80592003 Z" id="矩形" fill="#005EE9"></path>
                </g>
                <circle id="椭圆形备份-10" fill="#005EE9" cx="26.5" cy="4.09274194" r="2.35887097"></circle>
            </g>
        </g>
    </g>
</svg>