<?xml version="1.0" encoding="UTF-8"?>
<svg width="24px" height="24px" viewBox="0 0 24 24" version="1.1" xmlns="http://www.w3.org/2000/svg" xmlns:xlink="http://www.w3.org/1999/xlink">
    <title>POI / List / Truck Stops / ic_list_truckstop@3x</title>
    <g id="页面-1" stroke="none" stroke-width="1" fill="none" fill-rule="evenodd">
        <g id="Command-Web-轮播图-V2.2" transform="translate(-5423.000000, -729.000000)">
            <g id="编组-35" transform="translate(4816.000000, 213.000000)">
                <g id="编组-31" transform="translate(235.000000, 338.000000)">
                    <g id="编组" transform="translate(372.000000, 178.000000)">
                        <circle id="椭圆形" fill="#FFFFFF" cx="12" cy="12" r="12"></circle>
                        <g id="ic_list_loves" fill-rule="nonzero">
                            <g id="Shape-+-Oval-58">
                                <path d="M12,24 C18.627417,24 24,18.627417 24,12 C24,5.372583 18.627417,0 12,0 C5.372583,0 0,5.372583 0,12 C0,18.627417 5.372583,24 12,24 Z M12,22 C6.4771525,22 2,17.5228475 2,12 C2,6.4771525 6.4771525,2 12,2 C17.5228475,2 22,6.4771525 22,12 C22,17.5228475 17.5228475,22 12,22 Z" id="Oval-58" fill="#ED593B"></path>
                                <g id="心" transform="translate(4.000000, 6.000000)">
                                    <path d="M6.40166431,3.38343053 L6.06681201,3.71837972 L5.73176591,3.38343053 C4.42053904,2.07218982 2.29458473,2.07218982 0.983565491,3.38343053 C-0.327855164,4.69453282 -0.327855164,6.82037639 0.983565491,8.13160326 L1.31843164,8.46645556 L6.06681201,12.5092528 L10.8149986,8.46645556 L11.1500585,8.13158941 C12.4610916,6.82037641 12.4610916,4.69453282 11.1500585,3.38343053 C9.83883165,2.07218982 7.71268355,2.07218982 6.40166431,3.38343053 Z" id="Shape-Copy-3" fill="#EA5953"></path>
                                    <path d="M7.40166431,2.58343053 L7.06681201,2.91837972 L6.73176591,2.58343053 C5.42053904,1.27218982 3.29458473,1.27218982 1.98356549,2.58343053 C0.672144836,3.89453282 0.672144836,6.02037639 1.98356549,7.33160326 L2.31843164,7.66645556 L7.06681201,11.7092528 L11.8149986,7.66645556 L12.1500585,7.33158941 C13.4610916,6.02037641 13.4610916,3.89453282 12.1500585,2.58343053 C10.8388316,1.27218982 8.71268355,1.27218982 7.40166431,2.58343053 Z" id="Shape-Copy-2" fill="#FF9661"></path>
                                    <path d="M8.40166431,1.78343053 L8.06681201,2.11837972 L7.73176591,1.78343053 C6.42053904,0.472189823 4.29458473,0.472189823 2.98356549,1.78343053 C1.67214484,3.09453282 1.67214484,5.22037639 2.98356549,6.53160326 L3.31843164,6.86645556 L8.06681201,10.9092528 L12.8149986,6.86645556 L13.1500585,6.53158941 C14.4610916,5.22037641 14.4610916,3.09453282 13.1500585,1.78343053 C11.8388316,0.472189823 9.71268355,0.472189823 8.40166431,1.78343053 Z" id="Shape-Copy" fill="#F8E71C"></path>
                                    <path d="M9.46601369,0.983430532 L9.13116139,1.31837972 L8.79611529,0.983430532 C7.48488842,-0.327810177 5.3589341,-0.327810177 4.04791487,0.983430532 C2.73649421,2.29453282 2.73649421,4.42037639 4.04791487,5.73160326 L4.38278102,6.06645556 L9.13116139,10.1092528 L13.879348,6.06645556 L14.2144079,5.73158941 C15.525441,4.42037641 15.525441,2.29453282 14.2144079,0.983430532 C12.903181,-0.327810177 10.7770329,-0.327810177 9.46601369,0.983430532 Z" id="Shape" fill="#EA5953"></path>
                                </g>
                            </g>
                        </g>
                    </g>
                </g>
            </g>
        </g>
    </g>
</svg>