<?xml version="1.0" encoding="utf-8"?>
<!-- Generator: Adobe Illustrator 27.0.0, SVG Export Plug-In . SVG Version: 6.00 Build 0)  -->
<svg version="1.1" id="Capa_1" xmlns:svgjs="http://svgjs.dev/svgjs"
	 xmlns="http://www.w3.org/2000/svg" xmlns:xlink="http://www.w3.org/1999/xlink" x="0px" y="0px" viewBox="0 0 512 132.9"
	 style="enable-background:new 0 0 512 132.9;" xml:space="preserve">
<style type="text/css">
	.st0{fill:#173054;}
	.st1{fill:#225777;}
	.st2{fill:none;}
	.st3{clip-path:url(#SVGID_00000018938695140162355660000010743786610465578638_);}
	.st4{fill:url(#SVGID_00000098182659047009244010000014742549252200586636_);}
	.st5{clip-path:url(#SVGID_00000083081228211301570320000006786177476682701735_);}
	.st6{fill:url(#SVGID_00000034784993937542794580000006199019231838176680_);}
</style>
<g transform="matrix(1,0,0,1,3.462409615489324,0.5031250156637854)">
	<g>
		<path class="st0" d="M222.7,12.2v13.9h-25.1v11h18.5v13.3h-18.5V75h-17.5V12.2H222.7z M255.5,27.1c2.8-1.7,5.8-2.5,9-2.5v18.6
			h-4.9c-3.8,0-6.6,0.7-8.5,2.2s-2.8,4.1-2.8,7.7v21.8h-17.5V25h17.5v8.8C250.3,31,252.7,28.7,255.5,27.1z M319.1,53.5h-33
			c0.2,2.7,0.9,4.8,2.3,6.1s3,2,5.1,2c2.9,0,5-1.3,6.2-3.9h18.6c-0.8,3.4-2.3,6.5-4.5,9.2s-5,4.8-8.4,6.4c-3.4,1.5-7.1,2.3-11.2,2.3
			c-4.9,0-9.3-1-13.1-3.1s-6.8-5-9-8.9s-3.2-8.4-3.2-13.6s1.1-9.7,3.2-13.6c2.1-3.8,5.1-6.8,8.9-8.9s8.2-3.1,13.2-3.1
			c4.9,0,9.3,1,13.1,3c3.8,2,6.8,4.9,8.9,8.7s3.2,8.2,3.2,13.3C319.3,50.8,319.3,52.1,319.1,53.5z M301.5,45c0-2.1-0.7-3.8-2.1-5
			s-3.2-1.8-5.3-1.8s-3.9,0.6-5.3,1.7c-1.4,1.2-2.3,2.9-2.7,5.1H301.5z M328.7,17.8c-1.9-1.7-2.8-3.8-2.8-6.4s0.9-4.8,2.8-6.5
			s4.3-2.6,7.4-2.6c3,0,5.5,0.9,7.3,2.6c1.9,1.7,2.8,3.9,2.8,6.5s-0.9,4.7-2.8,6.4s-4.3,2.5-7.3,2.5
			C333.1,20.4,330.6,19.5,328.7,17.8z M344.8,25v49.9h-17.5V25H344.8z M383,26.4c2.5,1.4,4.5,3.2,5.8,5.5V25h17.5v49.4
			c0,4.7-0.9,8.9-2.7,12.7s-4.6,6.8-8.3,9s-8.5,3.4-14.3,3.4c-7.7,0-13.9-1.8-18.5-5.4s-7.3-8.5-7.9-14.8h17.2
			c0.4,1.6,1.2,2.8,2.7,3.7c1.4,0.9,3.3,1.3,5.5,1.3c5.9,0,8.9-3.3,8.9-10v-6.4c-1.4,2.3-3.3,4.2-5.8,5.5c-2.5,1.4-5.5,2-8.9,2
			c-4,0-7.6-1-10.8-3.1s-5.8-5.1-7.7-8.9c-1.9-3.9-2.8-8.4-2.8-13.6s0.9-9.7,2.8-13.5c1.9-3.9,4.4-6.8,7.7-8.9
			c3.2-2.1,6.8-3.1,10.8-3.1C377.5,24.4,380.4,25.1,383,26.4z M386.2,42.4c-1.8-1.8-3.9-2.8-6.5-2.8s-4.8,0.9-6.5,2.7
			s-2.6,4.3-2.6,7.6c0,3.2,0.9,5.7,2.6,7.6c1.7,1.9,3.9,2.8,6.5,2.8s4.7-0.9,6.5-2.8c1.8-1.8,2.6-4.4,2.6-7.7
			C388.8,46.7,387.9,44.2,386.2,42.4z M463.5,30.3c3.4,3.8,5,9,5,15.5v29.1H451V48.1c0-2.8-0.7-5.1-2.2-6.7c-1.5-1.6-3.5-2.4-6-2.4
			c-2.6,0-4.7,0.8-6.1,2.4c-1.5,1.6-2.2,3.9-2.2,6.7v26.8H417V9h17.5v23.1c1.5-2.3,3.6-4.1,6.3-5.5s5.7-2.1,9.1-2.1
			C455.7,24.6,460.2,26.5,463.5,30.3z M508.5,60.1V75H501c-12.8,0-19.1-6.3-19.1-19V39.5h-6.1V25h6.1V12.9h17.5V25h9.1v14.5h-9.1
			v16.7c0,1.4,0.3,2.3,0.9,2.9c0.6,0.6,1.7,0.9,3.2,0.9L508.5,60.1L508.5,60.1z"/>
	</g>
	<g>
		<path class="st1" d="M193.6,93.7V96h-12.5v10.6h10.5v2.3h-10.5v13h-2.8V93.6L193.6,93.7L193.6,93.7z M204.4,100.6
			c1.3-0.8,2.9-1.1,4.7-1.1v3h-0.8c-2.1,0-3.7,0.6-4.9,1.7s-1.9,3-1.9,5.5V122h-2.8V99.9h2.8v3.9
			C202.2,102.4,203.1,101.3,204.4,100.6z M233.7,112h-18.3c0.1,1.7,0.5,3.1,1.2,4.3c0.7,1.2,1.7,2.1,2.9,2.7s2.5,0.9,3.9,0.9
			c1.8,0,3.4-0.4,4.6-1.3c1.3-0.9,2.1-2.1,2.5-3.6h3c-0.5,2.2-1.7,3.9-3.5,5.3s-4,2-6.7,2c-2.1,0-3.9-0.5-5.6-1.4
			c-1.6-0.9-2.9-2.3-3.9-4c-0.9-1.7-1.4-3.7-1.4-6s0.5-4.3,1.4-6s2.2-3,3.8-4s3.5-1.4,5.6-1.4s3.9,0.5,5.5,1.4s2.8,2.2,3.6,3.7
			s1.3,3.3,1.3,5.2C233.8,110.8,233.7,111.5,233.7,112z M229.9,105.5c-0.7-1.2-1.6-2-2.8-2.6s-2.5-0.9-3.9-0.9c-2.1,0-3.9,0.7-5.4,2
			s-2.3,3.3-2.5,5.7h15.5C230.9,108.1,230.6,106.7,229.9,105.5z M256.2,101.9c1.7,1.6,2.5,4,2.5,7.1v13h-2.8v-12.6
			c0-2.4-0.6-4.2-1.8-5.5s-2.8-1.9-4.9-1.9c-2.1,0-3.8,0.7-5.1,2s-1.9,3.3-1.9,5.9V122h-2.8V99.9h2.8v3.8c0.7-1.3,1.7-2.4,3-3.1
			s2.8-1.1,4.5-1.1C252.3,99.5,254.5,100.3,256.2,101.9z M266.9,119.6h11.6v2.3h-14.8v-2.3l11.4-17.4h-11.2v-2.3h14.4v2.3
			L266.9,119.6z M301.8,99.9l-13.1,32.5h-3l4.3-10.5l-9.1-22h3.1l7.5,18.9l7.3-18.9C298.8,99.9,301.8,99.9,301.8,99.9z"/>
	</g>
	<g>
		<rect x="-3.5" y="-0.5" class="st2" width="154.8" height="125.4"/>
		<g>
			<g>
				<g>
					<g>
						<g>
							<g>
								<g>
									<defs>
										<rect id="SVGID_1_" x="-3.5" y="-0.5" width="154.8" height="125.4"/>
									</defs>
									<clipPath id="SVGID_00000007429097195100639910000013074300948337486782_">
										<use xlink:href="#SVGID_1_"  style="overflow:visible;"/>
									</clipPath>
									<g style="clip-path:url(#SVGID_00000007429097195100639910000013074300948337486782_);">
										
											<linearGradient id="SVGID_00000022520324220483736930000003526197453606634378_" gradientUnits="userSpaceOnUse" x1="-114.3842" y1="664.5257" x2="-55.0268" y2="723.8829" gradientTransform="matrix(1.7518 0 0 2.0652 218.6008 -1368.4639)">
											<stop  offset="0" style="stop-color:#0099CC"/>
											<stop  offset="1" style="stop-color:#005DCC"/>
										</linearGradient>
										<path style="fill:url(#SVGID_00000022520324220483736930000003526197453606634378_);" d="M91.5,23.5
											c-6.4-0.3-17.6-0.4-17.6-0.4s-11.1,0.1-17.6,0.4c-6.4,0.3-14.8,0.4-14.9,4.6c0,0,0.2,0,0.6-0.1l-0.5,14.5
											c0,0.4,0.1,0.8,0.4,1.1c0.3,0.3,0.7,0.4,1.1,0.4c6.1-0.6,22.6-1.1,27.5-1.2c0.8,0,1.4-0.6,1.4-1.4V26.5h4v14.8
											c0,0.8,0.6,1.4,1.4,1.4c4.9,0.1,21.3,0.6,27.5,1.2c0.4,0,0.8-0.1,1.1-0.4c0.3-0.3,0.5-0.7,0.4-1.1l-0.5-14.6
											c0.4,0.1,0.6,0.1,0.6,0.1C106.3,23.9,97.9,23.8,91.5,23.5z M120.8,86.2h-14.9l-2.3,4.8l1.1-6.8h16c0,0,1.3,0.2,1.6-0.9
											c0.3-1.1-0.3-10.2-0.4-12c0-1.4-0.7-2.6-1.9-3.3c-2.1-0.6-4.4-1-6.6-1.2l-0.6-16.5l1.4-0.6c1.5,0.4,2.9,0.9,4.4,1.5
											c0.2,0.1,0.4,0.1,0.6,0.1s0.4-0.1,0.6-0.2c0.4-0.3,0.7-0.8,0.4-2.7h0.4c0.3,0,0.7-0.1,0.9-0.4c0.2-0.2,0.3-0.6,0.3-0.9
											l-0.7-13.7c0-0.7-0.6-1.3-1.3-1.3h-0.3c-0.7-1.8-2.4-2.9-4.3-3c-0.3,0-0.5,0-0.8,0.1c-0.9,0.1-1.6,0.3-2.2,0.4l-0.4-11.8
											c-0.7-0.3-1.5-0.5-2.2-0.5L109,0.7c0,0-0.9-1.4-1.8-1.4s-1.8,1.3-1.5,2.8c0.2,1.2,0.7,11.9,0.8,15.3
											c-0.7,0.1-1.4,0.2-2.1,0.4l0.3,5.4c2.4,1,3.6,2.5,3.7,4.6l0.1,2.3l-0.7-0.2l0.8,16.2v2.7c0.6,1.2,1,2.6,1.1,4
											c0.2,2.4,0.6,8.6,0.7,11.7v2c-3.1-0.2-5.6-0.4-5.6-0.4V52.8l1.7,12.6l2.1-0.9c-0.1-3.1-0.4-9.3-0.7-11.6
											c-0.4-3.3-2-6.4-7-7.4s-26.8-1-26.8-1s-21.8,0-26.8,1s-6.6,4.1-7,7.4c-0.3,2.3-0.6,8.5-0.7,11.6l2.1,0.9l1.7-12.6v13.3
											c0,0-2.6,0.1-5.6,0.4v-2c0.1-3.1,0.5-9.3,0.7-11.7c0.1-1.4,0.5-2.7,1.1-4v-2.7l0.8-16.2l-0.7,0.2l0.1-2.3
											c0.1-2,1.3-3.6,3.7-4.6l0.3-5.4c-0.7-0.2-1.4-0.3-2.1-0.4c0.1-3.5,0.6-14.1,0.8-15.3c0.3-1.5-0.6-2.8-1.5-2.8
											s-1.8,1.4-1.8,1.4l-0.8,16.8c-0.8,0-1.5,0.2-2.2,0.5l-0.4,11.8c-0.6-0.1-1.3-0.3-2.2-0.4c-0.3,0-0.5-0.1-0.8-0.1
											c-1.9,0.1-3.6,1.2-4.3,3h-0.3c-0.7,0-1.3,0.6-1.3,1.3l-0.7,13.7c0,0.3,0.1,0.7,0.3,0.9c0.2,0.2,0.5,0.4,0.9,0.4h0.4
											c-0.2,1.8,0.1,2.4,0.4,2.7c0.2,0.1,0.4,0.2,0.6,0.2s0.4-0.1,0.6-0.1c1.4-0.6,2.9-1.1,4.4-1.5l1.4,0.6L34.6,67
											c-2.2,0.1-4.5,0.5-6.6,1.2c-1.2,0.7-1.9,1.9-1.9,3.3c-0.1,1.8-0.7,10.9-0.4,12c0.3,1.1,1.6,0.9,1.6,0.9h16l1.1,6.8
											l-2.3-4.8H27.2C24,87.1,21.9,90,22,93.3h104C126.1,89.8,123.9,87,120.8,86.2z M114.6,31.2c0.2,0,0.4,0,0.5,0
											c0.9,0,1.8,0.5,2.3,1.2c-0.3,0-0.6,0.1-0.9,0.4c-0.2,0.2-0.3,0.6-0.3,0.9l0.7,13.7c0,0.7,0.6,1.3,1.3,1.3h0.1
											c0,0.3,0.1,0.5,0.1,0.7c-1.4-0.5-3.7-1.3-4-1.3l-0.3-0.1l-1.4,0.7l-0.6-17C112.8,31.5,113.6,31.3,114.6,31.2z M103.5,73.6
											c0-1.1,0.9-1.9,1.9-1.9h11.9c1,0,1.9,0.8,1.9,1.9l0.2,4.8c0,0.5-0.2,1-0.5,1.4c-0.4,0.4-0.9,0.6-1.4,0.6h-12.1
											c-1.1,0-1.9-0.9-1.9-1.9V73.6z M52.2,50.6h43.5c0.8,0,1.7,0.3,2.3,0.9c0.6,0.6,0.9,1.4,0.9,2.3H49c0-0.8,0.3-1.7,0.9-2.3
											C50.6,50.9,51.4,50.6,52.2,50.6z M52.2,56.8h43.5c0.8,0,1.7,0.3,2.3,0.9c0.6,0.6,0.9,1.4,0.9,2.3H49
											c0-0.8,0.3-1.7,0.9-2.3C50.6,57.2,51.4,56.8,52.2,56.8z M52.2,63.1h43.5c0.8,0,1.7,0.3,2.3,0.9c0.6,0.6,0.9,1.4,0.9,2.3
											H49c0-0.8,0.3-1.7,0.9-2.3C50.6,63.4,51.4,63.1,52.2,63.1z M52.2,69.4h43.5c1.8,0,3.2,1.4,3.2,3.2H49
											c0-0.8,0.3-1.7,0.9-2.3C50.6,69.7,51.4,69.4,52.2,69.4z M98.3,80.6v1.2H87.8v-1.2H98.3z M85.4,80.6v1.2H74.8v-1.2H85.4z
											 M73.1,80.6v1.2H62.5v-1.2H73.1z M60.1,80.6v1.2H49.6v-1.2H60.1z M33.8,47.9L33.5,48c-0.3,0.1-2.6,0.8-4,1.3
											c0-0.2,0-0.5,0.1-0.7h0.1c0.7,0,1.3-0.6,1.3-1.3l0.7-13.7c0-0.3-0.1-0.7-0.3-0.9c-0.2-0.2-0.5-0.4-0.9-0.4
											c0.5-0.8,1.4-1.2,2.3-1.2c0.2,0,0.4,0,0.5,0c1,0.2,1.8,0.3,2.4,0.5l-0.6,17L33.8,47.9z M44.4,78.4c0,1.1-0.9,1.9-1.9,1.9
											H30.3c-0.5,0-1-0.2-1.4-0.6s-0.6-0.9-0.5-1.4l0.2-4.8c0-1,0.9-1.9,1.9-1.9h11.9c1.1,0,1.9,0.9,1.9,1.9L44.4,78.4z
											 M97.8,87.6H50.1c-1.8,0.1-3.4-1.3-3.5-3.2h54.6C101.2,86.3,99.6,87.7,97.8,87.6L97.8,87.6z M105.6,95l-0.7,9.8h-1.3V95
											h-18v7.9H62.4V95h-18v9.8H43L42.3,95H22.6c-0.8,3-0.6,6.1,0.4,9v14.5c0,2,1.6,3.6,3.6,3.6h8.9c2,0,3.6-1.6,3.6-3.6v-9.4
											H109v9.4c0,2,1.6,3.6,3.6,3.6h8.9c1,0,1.9-0.4,2.5-1.1c0.7-0.7,1-1.6,1-2.5V104c1-2.9,1.2-6,0.4-9H105.6z M45.5,16.6
											l-0.3,6.1c0.2,0,0.4-0.1,0.5-0.1c3.2-0.6,6.4-0.9,9.6-0.9h1c6.4-0.3,17.5-0.4,17.6-0.4l0,0c0.1,0,11.2,0.1,17.6,0.4h1
											c3.2,0.1,6.4,0.4,9.6,0.9c0.2,0,0.4,0.1,0.5,0.1l-0.3-6.1l1.4-0.4c0,0,0.3-0.1,0.7-0.2c-0.2-4.3-0.4-7.9-0.5-10.3h-60
											c-0.1,2.4-0.3,6-0.5,10.3c0.4,0.1,0.7,0.2,0.7,0.2L45.5,16.6z"/>
									</g>
								</g>
							</g>
						</g>
					</g>
				</g>
			</g>
			<g>
				<g>
					<g>
						<g>
							<g>
								<g>
									<defs>
										<rect id="SVGID_00000141442624678037912040000014751790104808022165_" x="-3.5" y="-0.5" width="154.8" height="125.4"/>
									</defs>
									<clipPath id="SVGID_00000168838076715972128110000000215950946634803353_">
										<use xlink:href="#SVGID_00000141442624678037912040000014751790104808022165_"  style="overflow:visible;"/>
									</clipPath>
									<g style="clip-path:url(#SVGID_00000168838076715972128110000000215950946634803353_);">
										
											<linearGradient id="SVGID_00000152221752698175152210000005650246478487869362_" gradientUnits="userSpaceOnUse" x1="-178.5439" y1="9901.3398" x2="-119.1866" y2="9960.6973" gradientTransform="matrix(2.6085 0 0 0.1498 446.537 -1366.2695)">
											<stop  offset="0" style="stop-color:#1A6ACC"/>
											<stop  offset="1" style="stop-color:#005BCC"/>
										</linearGradient>
										<path style="fill:url(#SVGID_00000152221752698175152210000005650246478487869362_);" d="M74,121.6
											c28.9,0,55.7,1.2,77.4,3.3c-15-5.3-44-8.9-77.4-8.9s-62.4,3.6-77.4,8.9C18.3,122.8,45,121.6,74,121.6z"/>
									</g>
								</g>
							</g>
						</g>
					</g>
				</g>
			</g>
		</g>
	</g>
</g>
</svg>
